<svg xmlns="http://www.w3.org/2000/svg" xmlns:xlink="http://www.w3.org/1999/xlink" contentStyleType="text/css" height="263px" preserveAspectRatio="none" style="width:597px;height:263px;background:#FFFFFF;" version="1.1" viewBox="0 0 597 263" width="597px" zoomAndPan="magnify"><defs/><g><!--class Order--><g id="elem_Order"><rect codeLine="1" fill="#F1F1F1" height="141.1055" id="Order" rx="2.5" ry="2.5" style="stroke:#181818;stroke-width:0.5;" width="169.2061" x="388.5" y="7"/><ellipse cx="450.96" cy="23" fill="#B4A7E5" rx="11" ry="11" style="stroke:#181818;stroke-width:1.0;"/><path d="M451.9131,19.6406 L451.9131,26.2969 L453.6318,26.2969 Q454.2412,26.2969 454.5068,26.5313 Q454.7725,26.7656 454.7725,27.1563 Q454.7725,27.5313 454.5068,27.7656 Q454.2412,28 453.6318,28 L448.4912,28 Q447.8818,28 447.6162,27.7656 Q447.3506,27.5313 447.3506,27.1406 Q447.3506,26.7656 447.6162,26.5313 Q447.8818,26.2969 448.4912,26.2969 L450.21,26.2969 L450.21,19.6406 L448.4912,19.6406 Q447.8818,19.6406 447.6162,19.4063 Q447.3506,19.1719 447.3506,18.7813 Q447.3506,18.4063 447.6162,18.1719 Q447.8818,17.9375 448.4912,17.9375 L453.6318,17.9375 Q454.2412,17.9375 454.5068,18.1719 Q454.7725,18.4063 454.7725,18.7813 Q454.7725,19.1719 454.5068,19.4063 Q454.2412,19.6406 453.6318,19.6406 L451.9131,19.6406 Z " fill="#000000"/><text fill="#000000" font-family="sans-serif" font-size="14" font-style="italic" lengthAdjust="spacing" textLength="35.7861" x="471.46" y="28.7969">Order</text><line style="stroke:#181818;stroke-width:0.5;" x1="389.5" x2="556.7061" y1="39" y2="39"/><ellipse cx="399.5" cy="53.8105" fill="none" rx="3" ry="3" style="stroke:#038048;stroke-width:1.0;"/><text fill="#000000" font-family="sans-serif" font-size="14" lengthAdjust="spacing" textLength="91.8408" x="408.5" y="58.1074">int: getBuilding</text><ellipse cx="399.5" cy="72.4316" fill="none" rx="3" ry="3" style="stroke:#038048;stroke-width:1.0;"/><text fill="#000000" font-family="sans-serif" font-size="14" lengthAdjust="spacing" textLength="79.3721" x="408.5" y="76.7285">int: getRoom</text><ellipse cx="399.5" cy="91.0527" fill="none" rx="3" ry="3" style="stroke:#038048;stroke-width:1.0;"/><text fill="#000000" font-family="sans-serif" font-size="14" lengthAdjust="spacing" textLength="143.2061" x="408.5" y="95.3496">Pancake: getPancakes</text><ellipse cx="399.5" cy="109.6738" fill="none" rx="3" ry="3" style="stroke:#038048;stroke-width:1.0;"/><text fill="#000000" font-family="sans-serif" font-size="14" lengthAdjust="spacing" textLength="133.8408" x="408.5" y="113.9707">String: getDescription</text><line style="stroke:#181818;stroke-width:0.5;" x1="389.5" x2="556.7061" y1="121.4844" y2="121.4844"/><ellipse cx="399.5" cy="136.2949" fill="#84BE84" rx="3" ry="3" style="stroke:#038048;stroke-width:1.0;"/><text fill="#000000" font-family="sans-serif" font-size="14" lengthAdjust="spacing" textLength="88.6895" x="408.5" y="140.5918">class Builder()</text></g><!--class Pancake--><g id="elem_Pancake"><rect codeLine="9" fill="#F1F1F1" height="66.6211" id="Pancake" rx="2.5" ry="2.5" style="stroke:#181818;stroke-width:0.5;" width="164.5371" x="188.5" y="44"/><ellipse cx="239.2773" cy="60" fill="#ADD1B2" rx="11" ry="11" style="stroke:#181818;stroke-width:1.0;"/><path d="M242.043,55.875 Q242.1992,55.6563 242.3867,55.5469 Q242.5742,55.4375 242.793,55.4375 Q243.168,55.4375 243.4023,55.7031 Q243.6367,55.9531 243.6367,56.5625 L243.6367,58.0156 Q243.6367,58.625 243.4023,58.8906 Q243.168,59.1563 242.793,59.1563 Q242.4492,59.1563 242.2461,58.9531 Q242.043,58.7656 241.9336,58.25 Q241.8867,57.8906 241.6992,57.7031 Q241.3711,57.3281 240.7617,57.1094 Q240.1523,56.8906 239.5273,56.8906 Q238.7617,56.8906 238.1211,57.2188 Q237.4961,57.5469 236.9961,58.2969 Q236.5117,59.0469 236.5117,60.0781 L236.5117,61.1719 Q236.5117,62.4063 237.4023,63.2344 Q238.293,64.0469 239.8867,64.0469 Q240.8242,64.0469 241.4805,63.7969 Q241.8711,63.6406 242.293,63.2031 Q242.5586,62.9375 242.6992,62.8594 Q242.8555,62.7813 243.0586,62.7813 Q243.3867,62.7813 243.6367,63.0469 Q243.9023,63.2969 243.9023,63.6406 Q243.9023,63.9844 243.5586,64.3906 Q243.0586,64.9688 242.2617,65.2969 Q241.1836,65.75 239.8867,65.75 Q238.3711,65.75 237.168,65.125 Q236.1836,64.625 235.4961,63.5625 Q234.8086,62.4844 234.8086,61.2031 L234.8086,60.0469 Q234.8086,58.7188 235.418,57.5781 Q236.043,56.4219 237.1367,55.8125 Q238.2305,55.1875 239.4648,55.1875 Q240.1992,55.1875 240.8398,55.3594 Q241.4961,55.5156 242.043,55.875 Z " fill="#000000"/><text fill="#000000" font-family="sans-serif" font-size="14" lengthAdjust="spacing" textLength="54.4824" x="259.7773" y="65.7969">Pancake</text><line style="stroke:#181818;stroke-width:0.5;" x1="189.5" x2="352.0371" y1="76" y2="76"/><ellipse cx="199.5" cy="90.8105" fill="none" rx="3" ry="3" style="stroke:#038048;stroke-width:1.0;"/><text fill="#000000" font-family="sans-serif" font-size="14" lengthAdjust="spacing" textLength="138.5371" x="208.5" y="95.1074">Ingredient: ingredients</text><line style="stroke:#181818;stroke-width:0.5;" x1="189.5" x2="352.0371" y1="102.6211" y2="102.6211"/></g><!--class Ingredient--><g id="elem_Ingredient"><rect codeLine="13" fill="#F1F1F1" height="122.4844" id="Ingredient" rx="2.5" ry="2.5" style="stroke:#181818;stroke-width:0.5;" width="145.8066" x="7" y="16.5"/><ellipse cx="45.1921" cy="32.5" fill="#EB937F" rx="11" ry="11" style="stroke:#181818;stroke-width:1.0;"/><path d="M44.0515,33.2969 L44.0515,35.7969 L48.3796,35.7969 L48.3796,34.875 Q48.3796,34.2656 48.614,34 Q48.864,33.7344 49.239,33.7344 Q49.614,33.7344 49.8484,34 Q50.0828,34.2656 50.0828,34.875 L50.0828,37.5 L42.0828,37.5 Q41.4578,37.5 41.1921,37.2656 Q40.9421,37.0313 40.9421,36.6406 Q40.9421,36.2656 41.2078,36.0313 Q41.4734,35.7969 42.0828,35.7969 L42.3484,35.7969 L42.3484,29.1406 L42.0828,29.1406 Q41.4578,29.1406 41.1921,28.9063 Q40.9421,28.6719 40.9421,28.2813 Q40.9421,27.9063 41.1921,27.6719 Q41.4578,27.4375 42.0828,27.4375 L49.7078,27.4375 L49.7078,30.0313 Q49.7078,30.6406 49.4734,30.9063 Q49.2546,31.1563 48.864,31.1563 Q48.489,31.1563 48.2546,30.9063 Q48.0203,30.6406 48.0203,30.0313 L48.0203,29.1406 L44.0515,29.1406 L44.0515,31.5938 L45.5359,31.5938 Q45.5359,30.9375 45.6609,30.75 Q45.9265,30.3438 46.3953,30.3438 Q46.7703,30.3438 47.0046,30.6094 Q47.239,30.8594 47.239,31.4688 L47.239,33.4375 Q47.239,33.9844 47.114,34.1719 Q46.8484,34.5625 46.3953,34.5625 Q45.9265,34.5625 45.6609,34.1563 Q45.5359,33.9688 45.5359,33.2969 L44.0515,33.2969 Z " fill="#000000"/><text fill="#000000" font-family="sans-serif" font-size="14" lengthAdjust="spacing" textLength="62.2686" x="64.3459" y="38.2969">Ingredient</text><line style="stroke:#181818;stroke-width:0.5;" x1="8" x2="151.8066" y1="48.5" y2="48.5"/><text fill="#000000" font-family="sans-serif" font-size="14" lengthAdjust="spacing" textLength="133.8066" x="13" y="67.6074">DARK_CHOCOLATE</text><text fill="#000000" font-family="sans-serif" font-size="14" lengthAdjust="spacing" textLength="127.5859" x="13" y="86.2285">MILK_CHOCOLATE</text><text fill="#000000" font-family="sans-serif" font-size="14" lengthAdjust="spacing" textLength="123.6826" x="13" y="104.8496">WHIPPED_CREAM</text><text fill="#000000" font-family="sans-serif" font-size="14" lengthAdjust="spacing" textLength="83.2344" x="13" y="123.4707">HAZELNUTS</text><line style="stroke:#181818;stroke-width:0.5;" x1="8" x2="151.8066" y1="130.9844" y2="130.9844"/></g><!--class ConcreteOrder--><g id="elem_ConcreteOrder"><rect codeLine="19" fill="#F1F1F1" height="48" id="ConcreteOrder" rx="2.5" ry="2.5" style="stroke:#181818;stroke-width:0.5;" width="124.5928" x="338.5" y="208"/><ellipse cx="353.5" cy="224" fill="#ADD1B2" rx="11" ry="11" style="stroke:#181818;stroke-width:1.0;"/><path d="M356.2656,219.875 Q356.4219,219.6563 356.6094,219.5469 Q356.7969,219.4375 357.0156,219.4375 Q357.3906,219.4375 357.625,219.7031 Q357.8594,219.9531 357.8594,220.5625 L357.8594,222.0156 Q357.8594,222.625 357.625,222.8906 Q357.3906,223.1563 357.0156,223.1563 Q356.6719,223.1563 356.4688,222.9531 Q356.2656,222.7656 356.1563,222.25 Q356.1094,221.8906 355.9219,221.7031 Q355.5938,221.3281 354.9844,221.1094 Q354.375,220.8906 353.75,220.8906 Q352.9844,220.8906 352.3438,221.2188 Q351.7188,221.5469 351.2188,222.2969 Q350.7344,223.0469 350.7344,224.0781 L350.7344,225.1719 Q350.7344,226.4063 351.625,227.2344 Q352.5156,228.0469 354.1094,228.0469 Q355.0469,228.0469 355.7031,227.7969 Q356.0938,227.6406 356.5156,227.2031 Q356.7813,226.9375 356.9219,226.8594 Q357.0781,226.7813 357.2813,226.7813 Q357.6094,226.7813 357.8594,227.0469 Q358.125,227.2969 358.125,227.6406 Q358.125,227.9844 357.7813,228.3906 Q357.2813,228.9688 356.4844,229.2969 Q355.4063,229.75 354.1094,229.75 Q352.5938,229.75 351.3906,229.125 Q350.4063,228.625 349.7188,227.5625 Q349.0313,226.4844 349.0313,225.2031 L349.0313,224.0469 Q349.0313,222.7188 349.6406,221.5781 Q350.2656,220.4219 351.3594,219.8125 Q352.4531,219.1875 353.6875,219.1875 Q354.4219,219.1875 355.0625,219.3594 Q355.7188,219.5156 356.2656,219.875 Z " fill="#000000"/><text fill="#000000" font-family="sans-serif" font-size="14" lengthAdjust="spacing" textLength="92.5928" x="367.5" y="229.7969">ConcreteOrder</text><line style="stroke:#181818;stroke-width:0.5;" x1="339.5" x2="462.0928" y1="240" y2="240"/><line style="stroke:#181818;stroke-width:0.5;" x1="339.5" x2="462.0928" y1="248" y2="248"/></g><!--class NullOrder--><g id="elem_NullOrder"><rect codeLine="22" fill="#F1F1F1" height="48" id="NullOrder" rx="2.5" ry="2.5" style="stroke:#181818;stroke-width:0.5;" width="91.9033" x="499" y="208"/><ellipse cx="514" cy="224" fill="#ADD1B2" rx="11" ry="11" style="stroke:#181818;stroke-width:1.0;"/><path d="M516.7656,219.875 Q516.9219,219.6563 517.1094,219.5469 Q517.2969,219.4375 517.5156,219.4375 Q517.8906,219.4375 518.125,219.7031 Q518.3594,219.9531 518.3594,220.5625 L518.3594,222.0156 Q518.3594,222.625 518.125,222.8906 Q517.8906,223.1563 517.5156,223.1563 Q517.1719,223.1563 516.9688,222.9531 Q516.7656,222.7656 516.6563,222.25 Q516.6094,221.8906 516.4219,221.7031 Q516.0938,221.3281 515.4844,221.1094 Q514.875,220.8906 514.25,220.8906 Q513.4844,220.8906 512.8438,221.2188 Q512.2188,221.5469 511.7188,222.2969 Q511.2344,223.0469 511.2344,224.0781 L511.2344,225.1719 Q511.2344,226.4063 512.125,227.2344 Q513.0156,228.0469 514.6094,228.0469 Q515.5469,228.0469 516.2031,227.7969 Q516.5938,227.6406 517.0156,227.2031 Q517.2813,226.9375 517.4219,226.8594 Q517.5781,226.7813 517.7813,226.7813 Q518.1094,226.7813 518.3594,227.0469 Q518.625,227.2969 518.625,227.6406 Q518.625,227.9844 518.2813,228.3906 Q517.7813,228.9688 516.9844,229.2969 Q515.9063,229.75 514.6094,229.75 Q513.0938,229.75 511.8906,229.125 Q510.9063,228.625 510.2188,227.5625 Q509.5313,226.4844 509.5313,225.2031 L509.5313,224.0469 Q509.5313,222.7188 510.1406,221.5781 Q510.7656,220.4219 511.8594,219.8125 Q512.9531,219.1875 514.1875,219.1875 Q514.9219,219.1875 515.5625,219.3594 Q516.2188,219.5156 516.7656,219.875 Z " fill="#000000"/><text fill="#000000" font-family="sans-serif" font-size="14" lengthAdjust="spacing" textLength="59.9033" x="528" y="229.7969">NullOrder</text><line style="stroke:#181818;stroke-width:0.5;" x1="500" x2="589.9033" y1="240" y2="240"/><line style="stroke:#181818;stroke-width:0.5;" x1="500" x2="589.9033" y1="248" y2="248"/></g><!--reverse link Ingredient to Pancake--><g id="link_Ingredient_Pancake"><path codeLine="12" d="M165.12,77.5 C176.78,77.5 176.45,77.5 188.11,77.5 " fill="none" id="Ingredient-backto-Pancake" style="stroke:#181818;stroke-width:1.0;"/><polygon fill="#181818" points="153.12,77.5,159.12,81.5,165.12,77.5,159.12,73.5,153.12,77.5" style="stroke:#181818;stroke-width:1.0;"/></g><!--reverse link Pancake to Order--><g id="link_Pancake_Order"><path codeLine="24" d="M365.85,77.5 C377.33,77.5 376.81,77.5 388.29,77.5 " fill="none" id="Pancake-backto-Order" style="stroke:#181818;stroke-width:1.0;"/><polygon fill="#181818" points="353.85,77.5,359.85,81.5,365.85,77.5,359.85,73.5,353.85,77.5" style="stroke:#181818;stroke-width:1.0;"/></g><!--reverse link Order to ConcreteOrder--><g id="link_Order_ConcreteOrder"><path codeLine="25" d="M432.4753,164.3371 C422.3153,185.8571 419.5,191.82 411.93,207.85 " fill="none" id="Order-backto-ConcreteOrder" style="stroke:#181818;stroke-width:1.0;"/><polygon fill="none" points="440.16,148.06,427.0496,161.7755,437.901,166.8987,440.16,148.06" style="stroke:#181818;stroke-width:1.0;"/></g><!--reverse link Order to NullOrder--><g id="link_Order_NullOrder"><path codeLine="26" d="M513.5247,164.3371 C523.6847,185.8571 526.5,191.82 534.07,207.85 " fill="none" id="Order-backto-NullOrder" style="stroke:#181818;stroke-width:1.0;"/><polygon fill="none" points="505.84,148.06,508.099,166.8987,518.9504,161.7755,505.84,148.06" style="stroke:#181818;stroke-width:1.0;"/></g><!--SRC=[NP3D3e8m48JlVOeU_GalOBmWa43aBwWnyM98MKbZBQOj9_NTnR8sQ4_JRxQpat9fG5rg1hHG3QW7eSDPKYxDYhPWDZqN3PVj7wwwxeQeh2Mhhs0nQetMpgZXgNL2q4pnk-6TH9E9Mcjgyq7DvkH5o8WmvDiaaQs2XiDdCtTQ3_CuI3q15-Cj9fC4P7-RtCUiqA-svo0kWYBrzv55MPB-esESb6KKdeCgyZDBOlyKfVbXlnjsZXM3JZ851l3BNFMy5y8nArmvB8jq_VIytvI9uLB86m00]--></g></svg>