<svg xmlns="http://www.w3.org/2000/svg" xmlns:xlink="http://www.w3.org/1999/xlink" contentStyleType="text/css" height="427px" preserveAspectRatio="none" style="width:481px;height:427px;background:#FFFFFF;" version="1.1" viewBox="0 0 481 427" width="481px" zoomAndPan="magnify"><defs/><g><!--class PancakeService--><g id="elem_PancakeService"><rect codeLine="1" fill="#F1F1F1" height="85.2422" id="PancakeService" rx="2.5" ry="2.5" style="stroke:#181818;stroke-width:0.5;" width="275.7578" x="102.5" y="7"/><ellipse cx="185.5464" cy="23" fill="#ADD1B2" rx="11" ry="11" style="stroke:#181818;stroke-width:1.0;"/><path d="M188.312,18.875 Q188.4683,18.6563 188.6558,18.5469 Q188.8433,18.4375 189.062,18.4375 Q189.437,18.4375 189.6714,18.7031 Q189.9058,18.9531 189.9058,19.5625 L189.9058,21.0156 Q189.9058,21.625 189.6714,21.8906 Q189.437,22.1563 189.062,22.1563 Q188.7183,22.1563 188.5151,21.9531 Q188.312,21.7656 188.2026,21.25 Q188.1558,20.8906 187.9683,20.7031 Q187.6401,20.3281 187.0308,20.1094 Q186.4214,19.8906 185.7964,19.8906 Q185.0308,19.8906 184.3901,20.2188 Q183.7651,20.5469 183.2651,21.2969 Q182.7808,22.0469 182.7808,23.0781 L182.7808,24.1719 Q182.7808,25.4063 183.6714,26.2344 Q184.562,27.0469 186.1558,27.0469 Q187.0933,27.0469 187.7495,26.7969 Q188.1401,26.6406 188.562,26.2031 Q188.8276,25.9375 188.9683,25.8594 Q189.1245,25.7813 189.3276,25.7813 Q189.6558,25.7813 189.9058,26.0469 Q190.1714,26.2969 190.1714,26.6406 Q190.1714,26.9844 189.8276,27.3906 Q189.3276,27.9688 188.5308,28.2969 Q187.4526,28.75 186.1558,28.75 Q184.6401,28.75 183.437,28.125 Q182.4526,27.625 181.7651,26.5625 Q181.0776,25.4844 181.0776,24.2031 L181.0776,23.0469 Q181.0776,21.7188 181.687,20.5781 Q182.312,19.4219 183.4058,18.8125 Q184.4995,18.1875 185.7339,18.1875 Q186.4683,18.1875 187.1089,18.3594 Q187.7651,18.5156 188.312,18.875 Z " fill="#000000"/><text fill="#000000" font-family="sans-serif" font-size="14" lengthAdjust="spacing" textLength="101.165" x="206.0464" y="28.7969">PancakeService</text><line style="stroke:#181818;stroke-width:0.5;" x1="103.5" x2="377.2578" y1="39" y2="39"/><ellipse cx="113.5" cy="53.8105" fill="none" rx="3" ry="3" style="stroke:#038048;stroke-width:1.0;"/><text fill="#000000" font-family="sans-serif" font-size="14" lengthAdjust="spacing" textLength="249.7578" x="122.5" y="58.1074">static final PancakeService : INSTANCE</text><ellipse cx="113.5" cy="72.4316" fill="none" rx="3" ry="3" style="stroke:#038048;stroke-width:1.0;"/><text fill="#000000" font-family="sans-serif" font-size="14" lengthAdjust="spacing" textLength="186.0059" x="122.5" y="76.7285">PancakeStore : pancakeStore</text><line style="stroke:#181818;stroke-width:0.5;" x1="103.5" x2="377.2578" y1="84.2422" y2="84.2422"/></g><!--class PancakeStore--><g id="elem_PancakeStore"><rect codeLine="9" fill="#F1F1F1" height="159.7266" id="PancakeStore" rx="2.5" ry="2.5" style="stroke:#181818;stroke-width:0.5;" width="467.2119" x="7" y="152"/><ellipse cx="192.3838" cy="168" fill="#B4A7E5" rx="11" ry="11" style="stroke:#181818;stroke-width:1.0;"/><path d="M193.3369,164.6406 L193.3369,171.2969 L195.0557,171.2969 Q195.665,171.2969 195.9307,171.5313 Q196.1963,171.7656 196.1963,172.1563 Q196.1963,172.5313 195.9307,172.7656 Q195.665,173 195.0557,173 L189.915,173 Q189.3057,173 189.04,172.7656 Q188.7744,172.5313 188.7744,172.1406 Q188.7744,171.7656 189.04,171.5313 Q189.3057,171.2969 189.915,171.2969 L191.6338,171.2969 L191.6338,164.6406 L189.915,164.6406 Q189.3057,164.6406 189.04,164.4063 Q188.7744,164.1719 188.7744,163.7813 Q188.7744,163.4063 189.04,163.1719 Q189.3057,162.9375 189.915,162.9375 L195.0557,162.9375 Q195.665,162.9375 195.9307,163.1719 Q196.1963,163.4063 196.1963,163.7813 Q196.1963,164.1719 195.9307,164.4063 Q195.665,164.6406 195.0557,164.6406 L193.3369,164.6406 Z " fill="#000000"/><text fill="#000000" font-family="sans-serif" font-size="14" font-style="italic" lengthAdjust="spacing" textLength="87.9443" x="212.8838" y="173.7969">PancakeStore</text><line style="stroke:#181818;stroke-width:0.5;" x1="8" x2="473.2119" y1="184" y2="184"/><line style="stroke:#181818;stroke-width:0.5;" x1="8" x2="473.2119" y1="192" y2="192"/><ellipse cx="18" cy="206.8105" fill="#84BE84" rx="3" ry="3" style="stroke:#038048;stroke-width:1.0;"/><text fill="#000000" font-family="sans-serif" font-size="14" lengthAdjust="spacing" textLength="252.875" x="27" y="211.1074">Order createOrder(int building, int room);</text><ellipse cx="18" cy="225.4316" fill="#84BE84" rx="3" ry="3" style="stroke:#038048;stroke-width:1.0;"/><text fill="#000000" font-family="sans-serif" font-size="14" lengthAdjust="spacing" textLength="427.998" x="27" y="229.7285">Order addPancakes(UUID orderId, List&lt;Pancake&gt; pancakesRecipe);</text><ellipse cx="18" cy="244.0527" fill="#84BE84" rx="3" ry="3" style="stroke:#038048;stroke-width:1.0;"/><text fill="#000000" font-family="sans-serif" font-size="14" lengthAdjust="spacing" textLength="441.2119" x="27" y="248.3496">Order removePancakes(Order order, List&lt;Pancake&gt; pancakesRecipe);</text><ellipse cx="18" cy="262.6738" fill="#84BE84" rx="3" ry="3" style="stroke:#038048;stroke-width:1.0;"/><text fill="#000000" font-family="sans-serif" font-size="14" lengthAdjust="spacing" textLength="209.2891" x="27" y="266.9707">Order deleteOrder(UUID orderId);</text><ellipse cx="18" cy="281.2949" fill="#84BE84" rx="3" ry="3" style="stroke:#038048;stroke-width:1.0;"/><text fill="#000000" font-family="sans-serif" font-size="14" lengthAdjust="spacing" textLength="260.6748" x="27" y="285.5918">List&lt;Order&gt; findOrdersByStep(Step orderStatus);</text><ellipse cx="18" cy="299.916" fill="#84BE84" rx="3" ry="3" style="stroke:#038048;stroke-width:1.0;"/><text fill="#000000" font-family="sans-serif" font-size="14" lengthAdjust="spacing" textLength="413.9502" x="27" y="304.2129">Order moveOrder(UUID orderId, Step currentOrderStatus, Step nextOrderStatus);</text></g><!--class InMemoryPancakeStore--><g id="elem_InMemoryPancakeStore"><rect codeLine="17" fill="#F1F1F1" height="48" id="InMemoryPancakeStore" rx="2.5" ry="2.5" style="stroke:#181818;stroke-width:0.5;" width="182.1787" x="149.5" y="372"/><ellipse cx="164.5" cy="388" fill="#ADD1B2" rx="11" ry="11" style="stroke:#181818;stroke-width:1.0;"/><path d="M167.2656,383.875 Q167.4219,383.6563 167.6094,383.5469 Q167.7969,383.4375 168.0156,383.4375 Q168.3906,383.4375 168.625,383.7031 Q168.8594,383.9531 168.8594,384.5625 L168.8594,386.0156 Q168.8594,386.625 168.625,386.8906 Q168.3906,387.1563 168.0156,387.1563 Q167.6719,387.1563 167.4688,386.9531 Q167.2656,386.7656 167.1563,386.25 Q167.1094,385.8906 166.9219,385.7031 Q166.5938,385.3281 165.9844,385.1094 Q165.375,384.8906 164.75,384.8906 Q163.9844,384.8906 163.3438,385.2188 Q162.7188,385.5469 162.2188,386.2969 Q161.7344,387.0469 161.7344,388.0781 L161.7344,389.1719 Q161.7344,390.4063 162.625,391.2344 Q163.5156,392.0469 165.1094,392.0469 Q166.0469,392.0469 166.7031,391.7969 Q167.0938,391.6406 167.5156,391.2031 Q167.7813,390.9375 167.9219,390.8594 Q168.0781,390.7813 168.2813,390.7813 Q168.6094,390.7813 168.8594,391.0469 Q169.125,391.2969 169.125,391.6406 Q169.125,391.9844 168.7813,392.3906 Q168.2813,392.9688 167.4844,393.2969 Q166.4063,393.75 165.1094,393.75 Q163.5938,393.75 162.3906,393.125 Q161.4063,392.625 160.7188,391.5625 Q160.0313,390.4844 160.0313,389.2031 L160.0313,388.0469 Q160.0313,386.7188 160.6406,385.5781 Q161.2656,384.4219 162.3594,383.8125 Q163.4531,383.1875 164.6875,383.1875 Q165.4219,383.1875 166.0625,383.3594 Q166.7188,383.5156 167.2656,383.875 Z " fill="#000000"/><text fill="#000000" font-family="sans-serif" font-size="14" lengthAdjust="spacing" textLength="150.1787" x="178.5" y="393.7969">InMemoryPancakeStore</text><line style="stroke:#181818;stroke-width:0.5;" x1="150.5" x2="330.6787" y1="404" y2="404"/><line style="stroke:#181818;stroke-width:0.5;" x1="150.5" x2="330.6787" y1="412" y2="412"/></g><!--link PancakeService to PancakeStore--><g id="link_PancakeService_PancakeStore"><path codeLine="8" d="M240.5,92.36 C240.5,110.07 240.5,131.3 240.5,151.76 " fill="none" id="PancakeService-PancakeStore" style="stroke:#181818;stroke-width:1.0;"/></g><!--reverse link PancakeStore to InMemoryPancakeStore--><g id="link_PancakeStore_InMemoryPancakeStore"><path codeLine="19" d="M240.5,330.1 C240.5,351.95 240.5,355.98 240.5,371.83 " fill="none" id="PancakeStore-backto-InMemoryPancakeStore" style="stroke:#181818;stroke-width:1.0;"/><polygon fill="none" points="240.5,312.1,234.5,330.1,246.5,330.1,240.5,312.1" style="stroke:#181818;stroke-width:1.0;"/></g><!--SRC=[bP5DRi8m48NtFiKiKn4kq2Aa_h281BHgoW5SUq1MWnsD3Ie2xeuzJIg7TiF6cfdt_6difnhfFRn9g-GNraXxen2EOWG-o60Kh8sLpRL-3zMo_dXSFi-YiTU2ewIqMIk4E0jnTNay7bmHnWQajOnAFZuAW16yaaO2HIW3Sbr4DtpkJAEDtPIGEd9kU_UGsQNM7SaNgrNr0YwDArt2tFWmwRHflwb_HsLQ7208jswFlvIV8MDkW6Xii5yxtwCpCOVLQVfbpQL_EjG1so8TCG9i1yIqr5zU2UnMEoAq8TNTnE8tjv5n5eg3hkmYFeqEWw_ECk8G9wUOqN_E2m00]--></g></svg>