<svg xmlns="http://www.w3.org/2000/svg" xmlns:xlink="http://www.w3.org/1999/xlink" contentStyleType="text/css" height="502px" preserveAspectRatio="none" style="width:485px;height:502px;background:#FFFFFF;" version="1.1" viewBox="0 0 485 502" width="485px" zoomAndPan="magnify"><defs/><g><!--class PancakeService--><g id="elem_PancakeService"><rect codeLine="1" fill="#F1F1F1" height="85.2422" id="PancakeService" rx="2.5" ry="2.5" style="stroke:#181818;stroke-width:0.5;" width="275.7578" x="105" y="7"/><ellipse cx="188.0464" cy="23" fill="#ADD1B2" rx="11" ry="11" style="stroke:#181818;stroke-width:1.0;"/><path d="M190.812,18.875 Q190.9683,18.6563 191.1558,18.5469 Q191.3433,18.4375 191.562,18.4375 Q191.937,18.4375 192.1714,18.7031 Q192.4058,18.9531 192.4058,19.5625 L192.4058,21.0156 Q192.4058,21.625 192.1714,21.8906 Q191.937,22.1563 191.562,22.1563 Q191.2183,22.1563 191.0151,21.9531 Q190.812,21.7656 190.7026,21.25 Q190.6558,20.8906 190.4683,20.7031 Q190.1401,20.3281 189.5308,20.1094 Q188.9214,19.8906 188.2964,19.8906 Q187.5308,19.8906 186.8901,20.2188 Q186.2651,20.5469 185.7651,21.2969 Q185.2808,22.0469 185.2808,23.0781 L185.2808,24.1719 Q185.2808,25.4063 186.1714,26.2344 Q187.062,27.0469 188.6558,27.0469 Q189.5933,27.0469 190.2495,26.7969 Q190.6401,26.6406 191.062,26.2031 Q191.3276,25.9375 191.4683,25.8594 Q191.6245,25.7813 191.8276,25.7813 Q192.1558,25.7813 192.4058,26.0469 Q192.6714,26.2969 192.6714,26.6406 Q192.6714,26.9844 192.3276,27.3906 Q191.8276,27.9688 191.0308,28.2969 Q189.9526,28.75 188.6558,28.75 Q187.1401,28.75 185.937,28.125 Q184.9526,27.625 184.2651,26.5625 Q183.5776,25.4844 183.5776,24.2031 L183.5776,23.0469 Q183.5776,21.7188 184.187,20.5781 Q184.812,19.4219 185.9058,18.8125 Q186.9995,18.1875 188.2339,18.1875 Q188.9683,18.1875 189.6089,18.3594 Q190.2651,18.5156 190.812,18.875 Z " fill="#000000"/><text fill="#000000" font-family="sans-serif" font-size="14" lengthAdjust="spacing" textLength="101.165" x="208.5464" y="28.7969">PancakeService</text><line style="stroke:#181818;stroke-width:0.5;" x1="106" x2="379.7578" y1="39" y2="39"/><ellipse cx="116" cy="53.8105" fill="none" rx="3" ry="3" style="stroke:#038048;stroke-width:1.0;"/><text fill="#000000" font-family="sans-serif" font-size="14" lengthAdjust="spacing" textLength="249.7578" x="125" y="58.1074">static final PancakeService : INSTANCE</text><ellipse cx="116" cy="72.4316" fill="none" rx="3" ry="3" style="stroke:#038048;stroke-width:1.0;"/><text fill="#000000" font-family="sans-serif" font-size="14" lengthAdjust="spacing" textLength="186.0059" x="125" y="76.7285">PancakeStore : pancakeStore</text><line style="stroke:#181818;stroke-width:0.5;" x1="106" x2="379.7578" y1="84.2422" y2="84.2422"/></g><!--class PancakeStore--><g id="elem_PancakeStore"><rect codeLine="9" fill="#F1F1F1" height="196.9688" id="PancakeStore" rx="2.5" ry="2.5" style="stroke:#181818;stroke-width:0.5;" width="471.8467" x="7" y="171"/><ellipse cx="194.7012" cy="187" fill="#B4A7E5" rx="11" ry="11" style="stroke:#181818;stroke-width:1.0;"/><path d="M195.6543,183.6406 L195.6543,190.2969 L197.373,190.2969 Q197.9824,190.2969 198.248,190.5313 Q198.5137,190.7656 198.5137,191.1563 Q198.5137,191.5313 198.248,191.7656 Q197.9824,192 197.373,192 L192.2324,192 Q191.623,192 191.3574,191.7656 Q191.0918,191.5313 191.0918,191.1406 Q191.0918,190.7656 191.3574,190.5313 Q191.623,190.2969 192.2324,190.2969 L193.9512,190.2969 L193.9512,183.6406 L192.2324,183.6406 Q191.623,183.6406 191.3574,183.4063 Q191.0918,183.1719 191.0918,182.7813 Q191.0918,182.4063 191.3574,182.1719 Q191.623,181.9375 192.2324,181.9375 L197.373,181.9375 Q197.9824,181.9375 198.248,182.1719 Q198.5137,182.4063 198.5137,182.7813 Q198.5137,183.1719 198.248,183.4063 Q197.9824,183.6406 197.373,183.6406 L195.6543,183.6406 Z " fill="#000000"/><text fill="#000000" font-family="sans-serif" font-size="14" font-style="italic" lengthAdjust="spacing" textLength="87.9443" x="215.2012" y="192.7969">PancakeStore</text><line style="stroke:#181818;stroke-width:0.5;" x1="8" x2="477.8467" y1="203" y2="203"/><line style="stroke:#181818;stroke-width:0.5;" x1="8" x2="477.8467" y1="211" y2="211"/><ellipse cx="18" cy="225.8105" fill="#84BE84" rx="3" ry="3" style="stroke:#038048;stroke-width:1.0;"/><text fill="#000000" font-family="sans-serif" font-size="14" lengthAdjust="spacing" textLength="252.875" x="27" y="230.1074">Order createOrder(int building, int room);</text><ellipse cx="18" cy="244.4316" fill="#84BE84" rx="3" ry="3" style="stroke:#038048;stroke-width:1.0;"/><text fill="#000000" font-family="sans-serif" font-size="14" lengthAdjust="spacing" textLength="221.7305" x="27" y="248.7285">Order findOrderById(UUID orderId);</text><ellipse cx="18" cy="263.0527" fill="#84BE84" rx="3" ry="3" style="stroke:#038048;stroke-width:1.0;"/><text fill="#000000" font-family="sans-serif" font-size="14" lengthAdjust="spacing" textLength="445.8467" x="27" y="267.3496">Order findOrderByIdAndStatus(UUID orderId, OrderStatus orderStatus);</text><ellipse cx="18" cy="281.6738" fill="#84BE84" rx="3" ry="3" style="stroke:#038048;stroke-width:1.0;"/><text fill="#000000" font-family="sans-serif" font-size="14" lengthAdjust="spacing" textLength="364.1504" x="27" y="285.9707">List&lt;Order&gt; findOrdersByStatus(OrderStatus orderStatus);</text><ellipse cx="18" cy="300.2949" fill="#84BE84" rx="3" ry="3" style="stroke:#038048;stroke-width:1.0;"/><text fill="#000000" font-family="sans-serif" font-size="14" lengthAdjust="spacing" textLength="417.8877" x="27" y="304.5918">Order addPancakes(Order order, List&lt;Pancake&gt; pancakesRecipe);</text><ellipse cx="18" cy="318.916" fill="#84BE84" rx="3" ry="3" style="stroke:#038048;stroke-width:1.0;"/><text fill="#000000" font-family="sans-serif" font-size="14" lengthAdjust="spacing" textLength="441.2119" x="27" y="323.2129">Order removePancakes(Order order, List&lt;Pancake&gt; pancakesRecipe);</text><ellipse cx="18" cy="337.5371" fill="#84BE84" rx="3" ry="3" style="stroke:#038048;stroke-width:1.0;"/><text fill="#000000" font-family="sans-serif" font-size="14" lengthAdjust="spacing" textLength="192.9648" x="27" y="341.834">void deleteOrder(Order order );</text><ellipse cx="18" cy="356.1582" fill="#84BE84" rx="3" ry="3" style="stroke:#038048;stroke-width:1.0;"/><text fill="#000000" font-family="sans-serif" font-size="14" lengthAdjust="spacing" textLength="434.9229" x="27" y="360.4551">Order moveOrder(Order existingOrder, OrderStatus nextOrderStatus);</text></g><!--class InMemoryPancakeStore--><g id="elem_InMemoryPancakeStore"><rect codeLine="19" fill="#F1F1F1" height="48" id="InMemoryPancakeStore" rx="2.5" ry="2.5" style="stroke:#181818;stroke-width:0.5;" width="182.1787" x="152" y="447"/><ellipse cx="167" cy="463" fill="#ADD1B2" rx="11" ry="11" style="stroke:#181818;stroke-width:1.0;"/><path d="M169.7656,458.875 Q169.9219,458.6563 170.1094,458.5469 Q170.2969,458.4375 170.5156,458.4375 Q170.8906,458.4375 171.125,458.7031 Q171.3594,458.9531 171.3594,459.5625 L171.3594,461.0156 Q171.3594,461.625 171.125,461.8906 Q170.8906,462.1563 170.5156,462.1563 Q170.1719,462.1563 169.9688,461.9531 Q169.7656,461.7656 169.6563,461.25 Q169.6094,460.8906 169.4219,460.7031 Q169.0938,460.3281 168.4844,460.1094 Q167.875,459.8906 167.25,459.8906 Q166.4844,459.8906 165.8438,460.2188 Q165.2188,460.5469 164.7188,461.2969 Q164.2344,462.0469 164.2344,463.0781 L164.2344,464.1719 Q164.2344,465.4063 165.125,466.2344 Q166.0156,467.0469 167.6094,467.0469 Q168.5469,467.0469 169.2031,466.7969 Q169.5938,466.6406 170.0156,466.2031 Q170.2813,465.9375 170.4219,465.8594 Q170.5781,465.7813 170.7813,465.7813 Q171.1094,465.7813 171.3594,466.0469 Q171.625,466.2969 171.625,466.6406 Q171.625,466.9844 171.2813,467.3906 Q170.7813,467.9688 169.9844,468.2969 Q168.9063,468.75 167.6094,468.75 Q166.0938,468.75 164.8906,468.125 Q163.9063,467.625 163.2188,466.5625 Q162.5313,465.4844 162.5313,464.2031 L162.5313,463.0469 Q162.5313,461.7188 163.1406,460.5781 Q163.7656,459.4219 164.8594,458.8125 Q165.9531,458.1875 167.1875,458.1875 Q167.9219,458.1875 168.5625,458.3594 Q169.2188,458.5156 169.7656,458.875 Z " fill="#000000"/><text fill="#000000" font-family="sans-serif" font-size="14" lengthAdjust="spacing" textLength="150.1787" x="181" y="468.7969">InMemoryPancakeStore</text><line style="stroke:#181818;stroke-width:0.5;" x1="153" x2="333.1787" y1="479" y2="479"/><line style="stroke:#181818;stroke-width:0.5;" x1="153" x2="333.1787" y1="487" y2="487"/></g><!--link PancakeService to PancakeStore--><g id="link_PancakeService_PancakeStore"><path codeLine="8" d="M243,92.02 C243,114.38 243,130.98 243,158.63 " fill="none" id="PancakeService-to-PancakeStore" style="stroke:#181818;stroke-width:1.0;"/><polygon fill="#181818" points="243,170.63,247,164.63,243,158.63,239,164.63,243,170.63" style="stroke:#181818;stroke-width:1.0;"/><text fill="#000000" font-family="sans-serif" font-size="13" lengthAdjust="spacing" textLength="20.96" x="244" y="137.0283">use</text></g><!--reverse link PancakeStore to InMemoryPancakeStore--><g id="link_PancakeStore_InMemoryPancakeStore"><path codeLine="21" d="M243,386.2 C243,415.62 243,427.28 243,446.93 " fill="none" id="PancakeStore-backto-InMemoryPancakeStore" style="stroke:#181818;stroke-width:1.0;stroke-dasharray:7.0,7.0;"/><polygon fill="none" points="243,368.2,237,386.2,249,386.2,243,368.2" style="stroke:#181818;stroke-width:1.0;"/><text fill="#000000" font-family="sans-serif" font-size="13" lengthAdjust="spacing" textLength="66.4663" x="244" y="413.0283">implements</text></g><!--SRC=[dPB1JiCm38RlUGeV1-ls06MQj067Ih0YoXuW91wAQ9CgIQjLO-zEshGYcHW7RdR-Bx_jnAoani0BbOn-Oe6w5GpXHEPWBBM2mK58MbxgAMIxucspktzquAHPfNkb3b92o9cGYykBnMrq9uN6817IeZvGfuVQYG3C8TSSDJ2DrE8GpnmDxuqekP0V2VIPLggwkGjmrpWVecsNyTb-dps0wjECNySsaXTkxCP4VE9Hh_X37uz6JyBOrO2iV-pCjXkj_hxikw2SZsEFl2SJxprAw-bjpIioKMFaeB5IBVxRf5M20ySIfnSE320gr9S94JmwT_SDkQyLJYlnQFDeuZDXmxvbyjdrgxlehuDL6NPfzRLS_agc8Agwn0gbDTy0]--></g></svg>